<?xml version="1.0" encoding="utf-8"?>
<!-- Generator: Adobe Illustrator 19.1.0, SVG Export Plug-In . SVG Version: 6.00 Build 0)  -->
<svg version="1.1" id="Layer_1" xmlns="http://www.w3.org/2000/svg" xmlns:xlink="http://www.w3.org/1999/xlink" x="0px" y="0px"
	 viewBox="0 0 568.7 72.4" style="enable-background:new 0 0 568.7 72.4;" xml:space="preserve">
<style type="text/css">
	.st0{fill:#FFFFFF;}
</style>
<polygon class="st0" points="37.1,72.4 74.3,36.2 37.1,0 0,36.2 37.1,36.2 "/>
<polygon class="st0" points="112.2,55 112.2,19.5 101.5,19.5 101.5,12.3 130.1,12.3 130.1,19.5 119.5,19.5 119.5,55 "/>
<path class="st0" d="M165.4,30.3h5.4c3.3,0,5.4-0.1,6.3-0.4c0.9-0.3,1.6-0.8,2.2-1.7c0.6-0.8,0.8-2,0.8-3.4c0-1.4-0.3-2.5-0.8-3.3
	c-0.6-0.8-1.3-1.4-2.3-1.7c-0.7-0.2-2.6-0.3-5.9-0.3h-5.7V30.3z M158.1,55V12.3h15.3c3.9,0,6.7,0.4,8.4,1.1c1.7,0.8,3.1,2.1,4.1,4
	c1.1,1.9,1.6,4.2,1.6,6.8c0,3.3-0.8,6-2.5,8.1c-1.6,2-4,3.3-7,3.8c1.6,1.1,2.8,2.3,3.9,3.6c1,1.3,2.4,3.6,4.2,7l4.4,8.3h-8.7
	l-5.3-9.3c-1.9-3.4-3.2-5.5-3.9-6.3c-0.7-0.8-1.4-1.4-2.2-1.8c-0.8-0.3-2-0.5-3.7-0.5h-1.5V55H158.1z"/>
<polygon class="st0" points="217.7,55 217.7,12.3 244.4,12.3 244.4,19.5 224.9,19.5 224.9,29 243,29 243,36.2 224.9,36.2 
	224.9,47.8 245,47.8 245,55 "/>
<polygon class="st0" points="274.5,55 274.5,12.3 281.6,12.3 296.3,40.8 296.3,12.3 303.1,12.3 303.1,55 295.8,55 281.3,27.1 
	281.3,55 "/>
<path class="st0" d="M341.2,19.5v28.3h5.4c2.3,0,4-0.2,5.1-0.6c1.1-0.4,1.9-1.1,2.6-1.9c0.7-0.9,1.2-2.2,1.7-4.1
	c0.4-1.9,0.7-4.3,0.7-7.4c0-3.2-0.2-5.7-0.7-7.5c-0.4-1.8-1.1-3.3-2.1-4.3c-1-1.1-2.1-1.7-3.5-2.1c-1-0.3-3-0.4-5.9-0.4H341.2z
	 M333.9,12.3h13.2c3.3,0,5.9,0.4,7.6,1.1c1.7,0.7,3.3,2,4.7,3.7c1.4,1.7,2.6,4,3.4,6.7c0.8,2.8,1.2,6.2,1.2,10.3
	c0,3.7-0.4,6.9-1.3,9.6c-0.9,2.7-1.9,4.9-3.3,6.5c-1.3,1.6-2.9,2.8-4.8,3.6c-1.9,0.8-4.3,1.2-7.2,1.2h-13.6V12.3z"/>
<polygon class="st0" points="393.6,55 393.6,12.3 398.3,12.3 398.3,33.5 416.2,12.3 422.7,12.3 407.6,29.6 423.3,55 417,55 
	404.3,33.4 398.3,40.2 398.3,55 "/>
<rect x="451.5" y="12.3" class="st0" width="4.8" height="42.7"/>
<polygon class="st0" points="497,55 497,17.3 485.2,17.3 485.2,12.3 513.7,12.3 513.7,17.3 501.8,17.3 501.8,55 "/>
<polygon class="st0" points="541.9,55 541.9,12.3 567.9,12.3 567.9,17.3 546.6,17.3 546.6,30.4 566.5,30.4 566.5,35.4 546.6,35.4 
	546.6,50 568.7,50 568.7,55 "/>
</svg>
